<mxfile host="app.diagrams.net" modified="2023-09-11T18:03:53.688Z" agent="Mozilla/5.0 (Windows NT 10.0; Win64; x64) AppleWebKit/537.36 (KHTML, like Gecko) Chrome/116.0.0.0 Safari/537.36 Edg/116.0.1938.76" version="21.7.4" etag="N4EY4Hw3h4I43-5OvCl4" type="github">
  <diagram name="PÃ¡gina-1" id="17YxepmoUsiAmg-BQhon">
    <mxGraphModel>
      <root>
        <mxCell id="0" />
        <mxCell id="1" parent="0" />
      </root>
    </mxGraphModel>
  </diagram>
</mxfile>
